<?xml version="1.0" encoding="utf-8"?>
<!-- Generator: Adobe Illustrator 22.1.0, SVG Export Plug-In . SVG Version: 6.00 Build 0)  -->
<svg version="1.1" xmlns="http://www.w3.org/2000/svg" xmlns:xlink="http://www.w3.org/1999/xlink" x="0px" y="0px"
	 viewBox="0 0 800 520" style="enable-background:new 0 0 800 520;" xml:space="preserve">
<style type="text/css">
	.st0{fill:#FFFFFF;}
	.st1{fill:#FF0066;}
	.st2{fill:#C600FF;}
	.st3{fill:#0012FF;}
	.st4{fill:#FF6600;}
	.st5{fill:#6C00FF;}
	.st6{fill:#FFF600;}
	.st7{fill:#0011BF;}
	.st8{fill:#F85F19;}
	.st9{fill:none;stroke:#B3B3B3;stroke-width:2;stroke-miterlimit:10;}
	.st10{fill:#B3B3B3;}
	.st11{fill:#6D0C8F;}
	.st12{fill:#FFC900;}
	.st13{fill:#F2F2F2;}
	.st14{fill:#802E00;}
	.st15{fill:#D9D9FF;}
	.st16{fill:#000B80;}
	.st17{fill:#CCCCCC;}
	.st18{fill:#666666;}
	.st19{fill:#303030;}
	.st20{fill:#FFAE80;}
	.st21{fill:#E6E6E6;}
	.st22{fill:#D8D8D8;}
	.st23{fill:#4051FF;}
	.st24{fill:#FFD6BF;}
	.st25{fill:none;stroke:#CCCCCC;stroke-miterlimit:10;}
	.st26{fill:#BFF0FF;}
	.st27{fill:#80E1FF;}
	.st28{fill:#0036BF;}
	.st29{fill:#90D433;}
	.st30{fill:#6C9F26;}
	.st31{opacity:0.1;fill:#FFC900;}
	.st32{fill:#662D1A;}
	.st33{fill:#4076FF;}
	.st34{fill:#994426;}
	.st35{fill:none;stroke:#FFFFFF;stroke-width:2;stroke-miterlimit:10;}
	.st36{fill:none;stroke:#FFFFFF;stroke-miterlimit:10;}
	.st37{fill:none;stroke:#FFFFFF;stroke-miterlimit:10;stroke-dasharray:2.0081,2.0081;}
	.st38{fill:none;stroke:#303030;stroke-miterlimit:10;}
	.st39{fill:#D98366;}
	.st40{opacity:0.4;fill:#D98366;}
	.st41{fill:none;stroke:#0011BF;stroke-width:2;stroke-miterlimit:10;}
	.st42{fill:none;stroke:#F85F19;stroke-width:2;stroke-miterlimit:10;}
	.st43{fill:none;stroke:#6D0C8F;stroke-width:2;stroke-miterlimit:10;}
	.st44{fill:#FFDDCC;}
	.st45{fill:none;stroke:#F85F19;stroke-width:2;stroke-miterlimit:10;stroke-dasharray:5.0878,5.0878;}
	.st46{fill:none;stroke:#F85F19;stroke-width:7;stroke-miterlimit:10;}
	.st47{fill:none;stroke:#F85F19;stroke-miterlimit:10;}
	.st48{fill:#F97F41;}
	.st49{fill:#AC4CCF;}
	.st50{fill:#FF8540;}
	.st51{fill:none;stroke:#303030;stroke-miterlimit:10;stroke-dasharray:2.0598,2.0598;}
	.st52{fill:none;stroke:#303030;stroke-miterlimit:10;stroke-dasharray:2.0117,2.0117;}
	.st53{fill:none;stroke:#FFFFFF;stroke-miterlimit:10;stroke-dasharray:2;}
	.st54{fill:none;stroke:#303030;stroke-miterlimit:10;stroke-dasharray:2;}
	.st55{fill:#F94B7D;}
	.st56{fill:none;stroke:#303030;stroke-width:5;stroke-miterlimit:10;}
	.st57{fill:none;stroke:#B3B3B3;stroke-width:4;stroke-miterlimit:10;}
	.st58{fill:none;stroke:#FFFFFF;stroke-width:4;stroke-miterlimit:10;}
	.st59{fill:#FFC3D2;}
	.st60{fill:#FFE9BF;}
	.st61{fill:#E3C3EF;}
	.st62{fill:none;stroke:#E6E6E6;stroke-width:2;stroke-miterlimit:10;}
	.st63{fill:none;stroke:#AC4CCF;stroke-width:2;stroke-miterlimit:10;}
	.st64{fill:none;stroke:#F97F41;stroke-width:2;stroke-miterlimit:10;}
	.st65{fill:none;stroke:#FFC900;stroke-width:2;stroke-miterlimit:10;}
	.st66{fill:none;stroke:#F94B7D;stroke-width:2;stroke-miterlimit:10;}
	.st67{fill:none;stroke:#303030;stroke-width:2;stroke-miterlimit:10;}
	.st68{fill:#800826;}
	.st69{fill:#BF0C39;}
	.st70{fill:#FF4A00;}
	.st71{fill:#FF9B00;}
	.st72{fill:#FFD640;}
	.st73{fill:#FFE480;}
	.st74{fill:#BFC5FF;}
	.st75{fill:#808BFF;}
	.st76{opacity:0.31;fill:#E6E6E6;}
	.st77{opacity:0.41;fill:#FFFFFF;}
	.st78{font-family:'Arial'; font-weight: bold;} 
	.st79{font-size:24.1508px;}
	.st80{fill:none;stroke:#BF0C39;stroke-miterlimit:10;}
	.st81{font-family:'Arial';}
	.st82{font-size:16.1005px;}
	.st83{font-size:13.4171px;}
	.st84{font-size:48.3017px;}
	.st85{font-size:10.7337px;}
	.st86{fill:none;stroke:#808BFF;stroke-miterlimit:10;}
	.st87{fill:none;stroke:#FFC900;stroke-miterlimit:10;}
	.st88{fill:none;stroke:#B3B3B3;stroke-width:2;stroke-miterlimit:10;stroke-dasharray:5.0382,5.0382;}
	.st89{fill:#9F0C8F;}
	.st90{fill:none;stroke:#FFFFFF;stroke-width:4;stroke-linecap:round;stroke-linejoin:round;stroke-miterlimit:10;}
	.st91{fill:none;stroke:#FFFFFF;stroke-width:3;stroke-miterlimit:10;}
	.st92{fill:none;stroke:#303030;stroke-width:3;stroke-linecap:round;stroke-miterlimit:10;}
	.st93{fill:none;stroke:#BF0C39;stroke-width:2;stroke-miterlimit:10;}
	.st94{fill:none;stroke:#808BFF;stroke-width:2;stroke-miterlimit:10;}
	.st95{fill:none;stroke:#FFFFFF;stroke-width:2;stroke-linecap:round;stroke-miterlimit:10;}
	.st96{fill:none;stroke:#F97F41;stroke-width:3;stroke-linecap:round;stroke-linejoin:round;stroke-miterlimit:10;}
	.st97{fill:none;stroke:#FFFFFF;stroke-width:2;stroke-miterlimit:10;stroke-dasharray:3;}
	.st98{clip-path:url(#SVGID_2_);}
	.st99{fill:#FAD8AD;}
	.st100{opacity:0.2;fill:#662D91;}
	.st101{fill:#1B161C;}
	.st102{opacity:0.2;fill:#FFFFFF;}
	.st103{fill:#F8CD94;}
	.st104{opacity:0.5;fill:#FFFFFF;}
</style>
<g id="Layer_1">
</g>
<g id="Layer_2">
</g>
<g id="Layer_3">
</g>
<g id="Layer_4">
</g>
<g id="Layer_5">
</g>
<g id="Layer_6">
</g>
<g id="Layer_7">
</g>
<g id="Layer_8">
</g>
<g id="Layer_9">
</g>
<g id="Layer_10">
</g>
<g id="Layer_11">
</g>
<g id="Layer_12">
</g>
<g id="Layer_13">
</g>
<g id="Layer_14">
</g>
<g id="Layer_15">
</g>
<g id="Layer_16">
</g>
<g id="Layer_17">
</g>
<g id="Layer_18">
</g>
<g id="Layer_19">
</g>
<g id="Layer_20">
</g>
<g id="Layer_21">
	<rect class="st0" width="800" height="520"/>
	<g>
		<path class="st76" d="M668.9,449.7H131.1c-2.8,0-5-2.2-5-5V320.1c0-2.8,2.2-5,5-5h537.9c2.8,0,5,2.2,5,5v124.6
			C673.9,447.5,671.7,449.7,668.9,449.7z"/>
		<path class="st76" d="M668.9,303.5H131.1c-2.8,0-5-2.2-5-5V75.3c0-2.8,2.2-5,5-5h537.9c2.8,0,5,2.2,5,5v223.2
			C673.9,301.3,671.7,303.5,668.9,303.5z"/>
		<path class="st0" d="M414.1,330.1H246.2v27.3h167.9c5.6,0,10.2-4.6,10.2-10.2v-6.9C424.3,334.7,419.7,330.1,414.1,330.1z"/>
		<circle class="st75" cx="246.2" cy="343.7" r="13.6"/>
		<circle class="st75" cx="513" cy="381" r="50.9"/>
		<path class="st0" d="M414.1,367.3H246.2v27.3h167.9c5.6,0,10.2-4.6,10.2-10.2v-6.9C424.3,371.9,419.7,367.3,414.1,367.3z"/>
		<circle class="st12" cx="246.2" cy="381" r="13.6"/>
		<path class="st0" d="M414.1,404.6H246.2v27.3h167.9c5.6,0,10.2-4.6,10.2-10.2v-6.9C424.3,409.1,419.7,404.6,414.1,404.6z"/>
		<circle class="st69" cx="246.2" cy="418.2" r="13.6"/>
		<path class="st77" d="M656,232.3H144c-2.8,0-5-2.2-5-5v-80.8c0-2.8,2.2-5,5-5H656c2.8,0,5,2.2,5,5v80.8
			C661,230,658.7,232.3,656,232.3z"/>
		<path class="st69" d="M466,158.6H139v-24.3c0-3.7,3-6.7,6.7-6.7H466V158.6z"/>
		<path class="st75" d="M563.5,158.6H661v-24.3c0-3.7-3-6.7-6.7-6.7h-90.8V158.6z"/>
		<rect x="466" y="127.6" class="st12" width="97.5" height="31"/>
		<path class="st0" d="M336.6,293.7H144c-2.8,0-5-2.2-5-5v-20c0-2.8,2.2-5,5-5h192.6c2.8,0,5,2.2,5,5v20
			C341.6,291.4,339.4,293.7,336.6,293.7z"/>
		<path class="st0" d="M495.4,293.7H369.7c-2.8,0-5-2.2-5-5v-20c0-2.8,2.2-5,5-5h125.7c2.8,0,5,2.2,5,5v20
			C500.4,291.4,498.2,293.7,495.4,293.7z"/>
		<path class="st0" d="M656,293.7H527c-2.8,0-5-2.2-5-5v-20c0-2.8,2.2-5,5-5h129c2.8,0,5,2.2,5,5v20
			C661,291.4,658.7,293.7,656,293.7z"/>
		<g>
			<line class="st38" x1="349.9" y1="280.7" x2="356.4" y2="280.7"/>
			<line class="st38" x1="349.9" y1="277.5" x2="356.4" y2="277.5"/>
		</g>
		<line class="st38" x1="508" y1="280.7" x2="514.4" y2="280.7"/>
		<text transform="matrix(1 0 0 1 328.203 104.2494)" class="st19 st78 st79">Cálculo NPS</text>
		<g>
			<circle class="st80" cx="157.6" cy="179.6" r="8.7"/>
			<circle class="st69" cx="160.3" cy="177.4" r="1.3"/>
			<circle class="st69" cx="154.6" cy="177.4" r="1.3"/>
			<path class="st80" d="M153.3,183.6c2.8-3.4,5.6-3.6,8.3,0"/>
		</g>
		<text transform="matrix(1 0 0 1 152.9398 215.8363)" class="st19 st81 st82">0</text>
		<text transform="matrix(1 0 0 1 181.0579 282.9222)" class="st19 st81 st83">Not Promoter Score</text>
		<text transform="matrix(1 0 0 1 267.3397 348.2181)" class="st19 st81 st83">Promoters</text>
		<text transform="matrix(1 0 0 1 267.3397 385.3392)" class="st19 st81 st83">Passives</text>
		<text transform="matrix(1 0 0 1 267.3397 422.9066)" class="st19 st81 st83">Detractors</text>
		<text transform="matrix(1 0 0 1 264.6151 148.0805)" class="st0 st78 st83">Detratores</text>
		<text transform="matrix(1 0 0 1 574.5638 148.0805)" class="st0 st78 st83">Promotores</text>
		<text transform="matrix(1 0 0 1 489.3714 148.0805)" class="st19 st78 st83">Neutros</text>
		<text transform="matrix(1 0 0 1 384.8163 348.2181)" class="st19 st78 st83">75%</text>
		<text transform="matrix(1 0 0 1 384.8163 385.3392)" class="st19 st78 st83">15%</text>
		<text transform="matrix(1 0 0 1 384.8163 422.9066)" class="st19 st78 st83">10%</text>
		<text transform="matrix(1 0 0 1 238.6893 348.2181)" class="st0 st78 st83">75</text>
		<g>
			<text transform="matrix(1 0 0 1 484.3324 390.5941)" class="st0 st78 st84">65</text>
		</g>
		<text transform="matrix(1 0 0 1 484.6497 404.5707)" class="st0 st81 st85">NPS Score</text>
		<text transform="matrix(1 0 0 1 238.6893 385.3392)" class="st0 st78 st83">15</text>
		<text transform="matrix(1 0 0 1 238.6893 422.9066)" class="st0 st78 st83">10</text>
		<text transform="matrix(1 0 0 1 390.0355 282.9222)" class="st75 st81 st83">% Promotores</text>
		<text transform="matrix(1 0 0 1 553.7025 282.9222)" class="st69 st81 st83">% Detratores</text>
		<g>
			<circle class="st80" cx="203.3" cy="179.6" r="8.7"/>
			<circle class="st69" cx="205.9" cy="177.4" r="1.3"/>
			<circle class="st69" cx="200.2" cy="177.4" r="1.3"/>
			<path class="st80" d="M198.9,183.6c2.8-3.4,5.6-3.6,8.3,0"/>
		</g>
		<text transform="matrix(1 0 0 1 198.5921 215.8363)" class="st19 st81 st82">1</text>
		<g>
			<circle class="st80" cx="251.1" cy="179.6" r="8.7"/>
			<circle class="st69" cx="253.8" cy="177.4" r="1.3"/>
			<circle class="st69" cx="248.1" cy="177.4" r="1.3"/>
			<path class="st80" d="M246.8,183.6c2.8-3.4,5.6-3.6,8.3,0"/>
		</g>
		<text transform="matrix(1 0 0 1 246.4476 215.8363)" class="st19 st81 st82">2</text>
		<g>
			<circle class="st80" cx="302.5" cy="179.6" r="8.7"/>
			<circle class="st69" cx="305.2" cy="177.4" r="1.3"/>
			<circle class="st69" cx="299.4" cy="177.4" r="1.3"/>
			<path class="st80" d="M298.2,183.6c2.8-3.4,5.6-3.6,8.3,0"/>
		</g>
		<text transform="matrix(1 0 0 1 297.8236 215.8363)" class="st19 st81 st82">3</text>
		<g>
			<circle class="st80" cx="351.3" cy="179.6" r="8.7"/>
			<circle class="st69" cx="353.9" cy="177.4" r="1.3"/>
			<circle class="st69" cx="348.2" cy="177.4" r="1.3"/>
			<path class="st80" d="M346.9,183.6c2.8-3.4,5.6-3.6,8.3,0"/>
		</g>
		<text transform="matrix(1 0 0 1 346.5824 215.8363)" class="st19 st81 st82">4</text>
		<g>
			<circle class="st80" cx="400" cy="179.6" r="8.7"/>
			<circle class="st69" cx="402.6" cy="177.4" r="1.3"/>
			<circle class="st69" cx="396.9" cy="177.4" r="1.3"/>
			<path class="st80" d="M395.7,183.6c2.8-3.4,5.6-3.6,8.3,0"/>
		</g>
		<text transform="matrix(1 0 0 1 395.3216 215.8363)" class="st19 st81 st82">5</text>
		<g>
			<circle class="st80" cx="449" cy="179.6" r="8.7"/>
			<circle class="st69" cx="451.7" cy="177.4" r="1.3"/>
			<circle class="st69" cx="446" cy="177.4" r="1.3"/>
			<path class="st80" d="M444.7,183.6c2.8-3.4,5.6-3.6,8.3,0"/>
		</g>
		<text transform="matrix(1 0 0 1 444.3636 215.8363)" class="st19 st81 st82">6</text>
		<g>
			<circle class="st86" cx="584.2" cy="179.6" r="8.7"/>
			<circle class="st75" cx="586.8" cy="177.4" r="1.3"/>
			<circle class="st75" cx="581.1" cy="177.4" r="1.3"/>
			<path class="st86" d="M588.1,181c-2.8,3.4-5.6,3.6-8.3,0"/>
		</g>
		<text transform="matrix(1 0 0 1 579.5052 215.8363)" class="st19 st81 st82">9</text>
		<g>
			<circle class="st86" cx="632.4" cy="179.6" r="8.7"/>
			<circle class="st75" cx="635.1" cy="177.4" r="1.3"/>
			<circle class="st75" cx="629.4" cy="177.4" r="1.3"/>
			<path class="st86" d="M636.3,181c-2.8,3.4-5.6,3.6-8.3,0"/>
		</g>
		<text transform="matrix(1 0 0 1 623.2523 215.8363)" class="st19 st81 st82">10</text>
		<g>
			<circle class="st87" cx="490" cy="179.6" r="8.7"/>
			<circle class="st12" cx="492.6" cy="177.4" r="1.3"/>
			<circle class="st12" cx="486.9" cy="177.4" r="1.3"/>
			<line class="st87" x1="485.7" y1="182.2" x2="493.9" y2="182.2"/>
		</g>
		<text transform="matrix(1 0 0 1 485.3206 215.8363)" class="st19 st81 st82">7</text>
		<g>
			<circle class="st87" cx="539.1" cy="179.6" r="8.7"/>
			<circle class="st12" cx="541.7" cy="177.4" r="1.3"/>
			<circle class="st12" cx="536" cy="177.4" r="1.3"/>
			<line class="st87" x1="534.7" y1="182.2" x2="543" y2="182.2"/>
		</g>
		<text transform="matrix(1 0 0 1 534.3714 215.8363)" class="st19 st81 st82">8</text>
	</g>
</g>
<g id="Layer_22">
</g>
<g id="Layer_23">
</g>
<g id="Layer_24">
</g>
<g id="Layer_25">
</g>
<g id="Layer_26">
</g>
<g id="Layer_27">
</g>
<g id="Layer_28">
</g>
<g id="Layer_29">
</g>
<g id="Layer_30">
</g>
</svg>
