<?xml version="1.0" encoding="utf-8"?>
<!-- Generator: Adobe Illustrator 22.1.0, SVG Export Plug-In . SVG Version: 6.00 Build 0)  -->
<svg version="1.1" xmlns="http://www.w3.org/2000/svg" xmlns:xlink="http://www.w3.org/1999/xlink" x="0px" y="0px"
	 viewBox="0 0 800 520" style="enable-background:new 0 0 800 520;" xml:space="preserve">
<style type="text/css">
	.st0{fill:#FFFFFF;}
	.st1{fill:#FF0066;}
	.st2{fill:#C600FF;}
	.st3{fill:#0012FF;}
	.st4{fill:#FF6600;}
	.st5{fill:#6C00FF;}
	.st6{fill:#FFF600;}
	.st7{fill:#0011BF;}
	.st8{fill:#F85F19;}
	.st9{fill:none;stroke:#B3B3B3;stroke-width:2;stroke-miterlimit:10;}
	.st10{fill:#B3B3B3;}
	.st11{fill:#6D0C8F;}
	.st12{fill:#FFC900;}
	.st13{fill:#F2F2F2;}
	.st14{fill:#802E00;}
	.st15{fill:#D9D9FF;}
	.st16{fill:#000B80;}
	.st17{fill:#CCCCCC;}
	.st18{fill:#666666;}
	.st19{fill:#303030;}
	.st20{fill:#FFAE80;}
	.st21{fill:#E6E6E6;}
	.st22{fill:#D8D8D8;}
	.st23{fill:#4051FF;}
	.st24{fill:#FFD6BF;}
	.st25{fill:none;stroke:#CCCCCC;stroke-miterlimit:10;}
	.st26{fill:#BFF0FF;}
	.st27{fill:#80E1FF;}
	.st28{fill:#0036BF;}
	.st29{fill:#90D433;}
	.st30{fill:#6C9F26;}
	.st31{opacity:0.1;fill:#FFC900;}
	.st32{fill:#662D1A;}
	.st33{fill:#4076FF;}
	.st34{fill:#994426;}
	.st35{fill:none;stroke:#FFFFFF;stroke-width:2;stroke-miterlimit:10;}
	.st36{fill:none;stroke:#FFFFFF;stroke-miterlimit:10;}
	.st37{fill:none;stroke:#FFFFFF;stroke-miterlimit:10;stroke-dasharray:2.0081,2.0081;}
	.st38{fill:none;stroke:#303030;stroke-miterlimit:10;}
	.st39{fill:#D98366;}
	.st40{opacity:0.4;fill:#D98366;}
	.st41{fill:none;stroke:#0011BF;stroke-width:2;stroke-miterlimit:10;}
	.st42{fill:none;stroke:#F85F19;stroke-width:2;stroke-miterlimit:10;}
	.st43{fill:none;stroke:#6D0C8F;stroke-width:2;stroke-miterlimit:10;}
	.st44{fill:#FFDDCC;}
	.st45{fill:none;stroke:#F85F19;stroke-width:2;stroke-miterlimit:10;stroke-dasharray:5.0878,5.0878;}
	.st46{fill:none;stroke:#F85F19;stroke-width:7;stroke-miterlimit:10;}
	.st47{fill:none;stroke:#F85F19;stroke-miterlimit:10;}
	.st48{fill:#F97F41;}
	.st49{fill:#AC4CCF;}
	.st50{fill:#FF8540;}
	.st51{fill:none;stroke:#303030;stroke-miterlimit:10;stroke-dasharray:2.0598,2.0598;}
	.st52{fill:none;stroke:#303030;stroke-miterlimit:10;stroke-dasharray:2.0117,2.0117;}
	.st53{fill:none;stroke:#FFFFFF;stroke-miterlimit:10;stroke-dasharray:2;}
	.st54{fill:none;stroke:#303030;stroke-miterlimit:10;stroke-dasharray:2;}
	.st55{fill:#F94B7D;}
	.st56{fill:none;stroke:#303030;stroke-width:5;stroke-miterlimit:10;}
	.st57{fill:none;stroke:#B3B3B3;stroke-width:4;stroke-miterlimit:10;}
	.st58{fill:none;stroke:#FFFFFF;stroke-width:4;stroke-miterlimit:10;}
	.st59{fill:#FFC3D2;}
	.st60{fill:#FFE9BF;}
	.st61{fill:#E3C3EF;}
	.st62{fill:none;stroke:#E6E6E6;stroke-width:2;stroke-miterlimit:10;}
	.st63{fill:none;stroke:#AC4CCF;stroke-width:2;stroke-miterlimit:10;}
	.st64{fill:none;stroke:#F97F41;stroke-width:2;stroke-miterlimit:10;}
	.st65{fill:none;stroke:#FFC900;stroke-width:2;stroke-miterlimit:10;}
	.st66{fill:none;stroke:#F94B7D;stroke-width:2;stroke-miterlimit:10;}
	.st67{fill:none;stroke:#303030;stroke-width:2;stroke-miterlimit:10;}
	.st68{fill:#800826;}
	.st69{font-family:'Arial';}
	.st70{font-size:19.7711px;}
	.st71{font-size:16.9466px;}
	.st72{fill:#808080;}
	.st73{font-size:14.1222px;}
	.st74{fill:#BF0C39;}
	.st75{fill:#FF4A00;}
	.st76{fill:#FF9B00;}
	.st77{fill:#FFD640;}
	.st78{fill:#FFE480;}
	.st79{fill:#BFC5FF;}
	.st80{fill:#808BFF;}
	.st81{opacity:0.31;fill:#E6E6E6;}
	.st82{opacity:0.41;fill:#FFFFFF;}
	.st83{fill:none;stroke:#BF0C39;stroke-miterlimit:10;}
	.st84{fill:none;stroke:#808BFF;stroke-miterlimit:10;}
	.st85{fill:none;stroke:#FFC900;stroke-miterlimit:10;}
	.st86{fill:none;stroke:#B3B3B3;stroke-width:2;stroke-miterlimit:10;stroke-dasharray:5.0382,5.0382;}
	.st87{fill:#9F0C8F;}
	.st88{fill:none;stroke:#FFFFFF;stroke-width:4;stroke-linecap:round;stroke-linejoin:round;stroke-miterlimit:10;}
	.st89{fill:none;stroke:#FFFFFF;stroke-width:3;stroke-miterlimit:10;}
	.st90{fill:none;stroke:#303030;stroke-width:3;stroke-linecap:round;stroke-miterlimit:10;}
	.st91{fill:none;stroke:#BF0C39;stroke-width:2;stroke-miterlimit:10;}
	.st92{fill:none;stroke:#808BFF;stroke-width:2;stroke-miterlimit:10;}
	.st93{fill:none;stroke:#FFFFFF;stroke-width:2;stroke-linecap:round;stroke-miterlimit:10;}
	.st94{fill:none;stroke:#F97F41;stroke-width:3;stroke-linecap:round;stroke-linejoin:round;stroke-miterlimit:10;}
	.st95{fill:none;stroke:#FFFFFF;stroke-width:2;stroke-miterlimit:10;stroke-dasharray:3;}
	.st96{clip-path:url(#SVGID_2_);}
	.st97{fill:#FAD8AD;}
	.st98{opacity:0.2;fill:#662D91;}
	.st99{fill:#1B161C;}
	.st100{opacity:0.2;fill:#FFFFFF;}
	.st101{fill:#F8CD94;}
	.st102{opacity:0.5;fill:#FFFFFF;}
</style>
<g id="Layer_1">
</g>
<g id="Layer_2">
</g>
<g id="Layer_3">
</g>
<g id="Layer_4">
</g>
<g id="Layer_5">
</g>
<g id="Layer_6">
</g>
<g id="Layer_7">
</g>
<g id="Layer_8">
</g>
<g id="Layer_9">
</g>
<g id="Layer_10">
</g>
<g id="Layer_11">
</g>
<g id="Layer_12">
</g>
<g id="Layer_13">
</g>
<g id="Layer_14">
</g>
<g id="Layer_15">
</g>
<g id="Layer_16">
</g>
<g id="Layer_17">
</g>
<g id="Layer_18">
</g>
<g id="Layer_19">
</g>
<g id="Layer_20">
	<rect class="st0" width="800" height="520"/>
	<g>
		<path class="st68" d="M139.5,326.2H93.9c-2.4,0-4.3-1.9-4.3-4.3v-45.6c0-2.4,1.9-4.3,4.3-4.3h45.6c2.4,0,4.3,1.9,4.3,4.3v45.6
			C143.8,324.3,141.9,326.2,139.5,326.2z"/>
		<text transform="matrix(1 0 0 1 111.2203 305.8862)" class="st0 st69 st70">0</text>
		<text transform="matrix(1 0 0 1 86.355 208.5737)" class="st19 st69 st71">1. INDICAÇÃO</text>
		<text transform="matrix(1 0 0 1 86.355 236.8179)" class="st72 st69 st73">Em uma escala de 0 a 10, o quanto você indicaria a EMPRESA a um amigo ou familiar?</text>
		<path class="st74" d="M196.9,326.2h-45.6c-2.4,0-4.3-1.9-4.3-4.3v-45.6c0-2.4,1.9-4.3,4.3-4.3h45.6c2.4,0,4.3,1.9,4.3,4.3v45.6
			C201.2,324.3,199.3,326.2,196.9,326.2z"/>
		<text transform="matrix(1 0 0 1 168.65 305.8862)" class="st0 st69 st70">1</text>
		<path class="st75" d="M253.9,326.2h-45.6c-2.4,0-4.3-1.9-4.3-4.3v-45.6c0-2.4,1.9-4.3,4.3-4.3h45.6c2.4,0,4.3,1.9,4.3,4.3v45.6
			C258.2,324.3,256.3,326.2,253.9,326.2z"/>
		<text transform="matrix(1 0 0 1 225.6099 305.8862)" class="st0 st69 st70">2</text>
		<path class="st50" d="M310.7,326.2h-45.6c-2.4,0-4.3-1.9-4.3-4.3v-45.6c0-2.4,1.9-4.3,4.3-4.3h45.6c2.4,0,4.3,1.9,4.3,4.3v45.6
			C315,324.3,313.1,326.2,310.7,326.2z"/>
		<text transform="matrix(1 0 0 1 282.3922 305.8862)" class="st19 st69 st70">3</text>
		<path class="st76" d="M367.5,326.2H322c-2.4,0-4.3-1.9-4.3-4.3v-45.6c0-2.4,1.9-4.3,4.3-4.3h45.6c2.4,0,4.3,1.9,4.3,4.3v45.6
			C371.9,324.3,369.9,326.2,367.5,326.2z"/>
		<text transform="matrix(1 0 0 1 339.2642 305.8862)" class="st19 st69 st70">4</text>
		<path class="st23" d="M709.3,326.2h-45.6c-2.4,0-4.3-1.9-4.3-4.3v-45.6c0-2.4,1.9-4.3,4.3-4.3h45.6c2.4,0,4.3,1.9,4.3,4.3v45.6
			C713.6,324.3,711.7,326.2,709.3,326.2z"/>
		<text transform="matrix(1 0 0 1 675.5523 305.8862)" class="st0 st69 st70">10</text>
		<path class="st12" d="M424.4,326.2h-45.6c-2.4,0-4.3-1.9-4.3-4.3v-45.6c0-2.4,1.9-4.3,4.3-4.3h45.6c2.4,0,4.3,1.9,4.3,4.3v45.6
			C428.7,324.3,426.8,326.2,424.4,326.2z"/>
		<text transform="matrix(1 0 0 1 396.1353 305.8862)" class="st19 st69 st70">5</text>
		<path class="st77" d="M481.6,326.2H436c-2.4,0-4.3-1.9-4.3-4.3v-45.6c0-2.4,1.9-4.3,4.3-4.3h45.6c2.4,0,4.3,1.9,4.3,4.3v45.6
			C485.9,324.3,484,326.2,481.6,326.2z"/>
		<text transform="matrix(1 0 0 1 453.3306 305.8862)" class="st19 st69 st70">6</text>
		<path class="st78" d="M538.4,326.2h-45.6c-2.4,0-4.3-1.9-4.3-4.3v-45.6c0-2.4,1.9-4.3,4.3-4.3h45.6c2.4,0,4.3,1.9,4.3,4.3v45.6
			C542.8,324.3,540.8,326.2,538.4,326.2z"/>
		<text transform="matrix(1 0 0 1 510.1578 305.8862)" class="st19 st69 st70">7</text>
		<path class="st79" d="M595.5,326.2h-45.6c-2.4,0-4.3-1.9-4.3-4.3v-45.6c0-2.4,1.9-4.3,4.3-4.3h45.6c2.4,0,4.3,1.9,4.3,4.3v45.6
			C599.8,324.3,597.9,326.2,595.5,326.2z"/>
		<text transform="matrix(1 0 0 1 567.191 305.8862)" class="st19 st69 st70">8</text>
		<path class="st80" d="M652.4,326.2h-45.6c-2.4,0-4.3-1.9-4.3-4.3v-45.6c0-2.4,1.9-4.3,4.3-4.3h45.6c2.4,0,4.3,1.9,4.3,4.3v45.6
			C656.7,324.3,654.8,326.2,652.4,326.2z"/>
		<text transform="matrix(1 0 0 1 624.1207 305.8862)" class="st19 st69 st70">9</text>
	</g>
</g>
<g id="Layer_21">
</g>
<g id="Layer_22">
</g>
<g id="Layer_23">
</g>
<g id="Layer_24">
</g>
<g id="Layer_25">
</g>
<g id="Layer_26">
</g>
<g id="Layer_27">
</g>
<g id="Layer_28">
</g>
<g id="Layer_29">
</g>
<g id="Layer_30">
</g>
</svg>
