<svg version="1.1" xmlns="http://www.w3.org/2000/svg" xmlns:xlink="http://www.w3.org/1999/xlink" x="0px" y="0px"
	 viewBox="0 0 800 520" style="enable-background:new 0 0 800 520;" xml:space="preserve">
<style type="text/css">
	.st0{fill:#FFFFFF;}
	.st1{fill:#FF0066;}
	.st2{fill:#C600FF;}
	.st3{fill:#0012FF;}
	.st4{fill:#FF6600;}
	.st5{fill:#6C00FF;}
	.st6{fill:#FFF600;}
	.st7{fill:#0011BF;}
	.st8{fill:#F85F19;}
	.st9{fill:none;stroke:#B3B3B3;stroke-width:2;stroke-miterlimit:10;}
	.st10{fill:#B3B3B3;}
	.st11{fill:#6D0C8F;}
	.st12{fill:#FFC900;}
	.st13{fill:#F2F2F2;}
	.st14{fill:#802E00;}
	.st15{fill:#D9D9FF;}
	.st16{fill:#000B80;}
	.st17{fill:#CCCCCC;}
	.st18{fill:#666666;}
	.st19{fill:#303030;}
	.st20{fill:#FFAE80;}
	.st21{fill:#E6E6E6;}
	.st22{fill:#D8D8D8;}
	.st23{fill:#4051FF;}
	.st24{fill:#FFD6BF;}
	.st25{fill:none;stroke:#CCCCCC;stroke-miterlimit:10;}
	.st26{fill:#BFF0FF;}
	.st27{fill:#80E1FF;}
	.st28{fill:#0036BF;}
	.st29{fill:#90D433;}
	.st30{fill:#6C9F26;}
	.st31{opacity:0.1;fill:#FFC900;}
	.st32{fill:#662D1A;}
	.st33{fill:#4076FF;}
	.st34{fill:#994426;}
	.st35{fill:none;stroke:#FFFFFF;stroke-width:2;stroke-miterlimit:10;}
	.st36{fill:none;stroke:#FFFFFF;stroke-miterlimit:10;}
	.st37{fill:none;stroke:#FFFFFF;stroke-miterlimit:10;stroke-dasharray:2.0081,2.0081;}
	.st38{fill:none;stroke:#303030;stroke-miterlimit:10;}
	.st39{fill:#D98366;}
	.st40{opacity:0.4;fill:#D98366;}
	.st41{fill:none;stroke:#0011BF;stroke-width:2;stroke-miterlimit:10;}
	.st42{fill:none;stroke:#F85F19;stroke-width:2;stroke-miterlimit:10;}
	.st43{fill:none;stroke:#6D0C8F;stroke-width:2;stroke-miterlimit:10;}
	.st44{fill:#FFDDCC;}
	.st45{fill:none;stroke:#F85F19;stroke-width:2;stroke-miterlimit:10;stroke-dasharray:5.0878,5.0878;}
	.st46{fill:none;stroke:#F85F19;stroke-width:7;stroke-miterlimit:10;}
	.st47{fill:none;stroke:#F85F19;stroke-miterlimit:10;}
	.st48{fill:#F97F41;}
	.st49{fill:#AC4CCF;}
	.st50{fill:#FF8540;}
	.st51{fill:none;stroke:#303030;stroke-miterlimit:10;stroke-dasharray:2.0598,2.0598;}
	.st52{fill:none;stroke:#303030;stroke-miterlimit:10;stroke-dasharray:2.0117,2.0117;}
	.st53{fill:none;stroke:#FFFFFF;stroke-miterlimit:10;stroke-dasharray:2;}
	.st54{fill:none;stroke:#303030;stroke-miterlimit:10;stroke-dasharray:2;}
	.st55{fill:#F94B7D;}
	.st56{fill:none;stroke:#303030;stroke-width:5;stroke-miterlimit:10;}
	.st57{fill:none;stroke:#B3B3B3;stroke-width:4;stroke-miterlimit:10;}
	.st58{fill:none;stroke:#FFFFFF;stroke-width:4;stroke-miterlimit:10;}
	.st59{fill:#FFC3D2;}
	.st60{fill:#FFE9BF;}
	.st61{fill:#E3C3EF;}
	.st62{fill:none;stroke:#E6E6E6;stroke-width:2;stroke-miterlimit:10;}
	.st63{fill:none;stroke:#AC4CCF;stroke-width:2;stroke-miterlimit:10;}
	.st64{fill:none;stroke:#F97F41;stroke-width:2;stroke-miterlimit:10;}
	.st65{fill:none;stroke:#FFC900;stroke-width:2;stroke-miterlimit:10;}
	.st66{fill:none;stroke:#F94B7D;stroke-width:2;stroke-miterlimit:10;}
	.st67{fill:none;stroke:#303030;stroke-width:2;stroke-miterlimit:10;}
	.st68{fill:#800826;}
	.st69{fill:#BF0C39;}
	.st70{fill:#FF4A00;}
	.st71{fill:#FF9B00;}
	.st72{fill:#FFD640;}
	.st73{fill:#FFE480;}
	.st74{fill:#BFC5FF;}
	.st75{fill:#808BFF;}
	.st76{opacity:0.31;fill:#E6E6E6;}
	.st77{opacity:0.41;fill:#FFFFFF;}
	.st78{fill:none;stroke:#BF0C39;stroke-miterlimit:10;}
	.st79{fill:none;stroke:#808BFF;stroke-miterlimit:10;}
	.st80{fill:none;stroke:#FFC900;stroke-miterlimit:10;}
	.st81{font-family:'Arial';}
	.st82{font-size:19.7711px;}
	.st83{fill:none;stroke:#B3B3B3;stroke-width:2;stroke-miterlimit:10;stroke-dasharray:5.0382,5.0382;}
	.st84{font-size:12px;}
	.st85{fill:#9F0C8F;}
	.st86{fill:none;stroke:#FFFFFF;stroke-width:4;stroke-linecap:round;stroke-linejoin:round;stroke-miterlimit:10;}
	.st87{fill:none;stroke:#FFFFFF;stroke-width:3;stroke-miterlimit:10;}
	.st88{fill:none;stroke:#303030;stroke-width:3;stroke-linecap:round;stroke-miterlimit:10;}
	.st89{fill:none;stroke:#BF0C39;stroke-width:2;stroke-miterlimit:10;}
	.st90{fill:none;stroke:#808BFF;stroke-width:2;stroke-miterlimit:10;}
	.st91{fill:none;stroke:#FFFFFF;stroke-width:2;stroke-linecap:round;stroke-miterlimit:10;}
	.st92{fill:none;stroke:#F97F41;stroke-width:3;stroke-linecap:round;stroke-linejoin:round;stroke-miterlimit:10;}
	.st93{fill:none;stroke:#FFFFFF;stroke-width:2;stroke-miterlimit:10;stroke-dasharray:3;}
	.st94{clip-path:url(#SVGID_2_);}
	.st95{fill:#FAD8AD;}
	.st96{opacity:0.2;fill:#662D91;}
	.st97{fill:#1B161C;}
	.st98{opacity:0.2;fill:#FFFFFF;}
	.st99{fill:#F8CD94;}
	.st100{opacity:0.5;fill:#FFFFFF;}
</style>
<g id="Layer_1">
</g>
<g id="Layer_2">
</g>
<g id="Layer_3">
</g>
<g id="Layer_4">
</g>
<g id="Layer_5">
</g>
<g id="Layer_6">
</g>
<g id="Layer_7">
</g>
<g id="Layer_8">
</g>
<g id="Layer_9">
</g>
<g id="Layer_10">
</g>
<g id="Layer_11">
</g>
<g id="Layer_12">
</g>
<g id="Layer_13">
</g>
<g id="Layer_14">
</g>
<g id="Layer_15">
</g>
<g id="Layer_16">
</g>
<g id="Layer_17">
</g>
<g id="Layer_18">
</g>
<g id="Layer_19">
</g>
<g id="Layer_20">
</g>
<g id="Layer_21">
</g>
<g id="Layer_22">
</g>
<g id="Layer_23">
	<rect class="st0" width="800" height="520"/>
	<g>
		<g>
			<path class="st7" d="M137.9,236.7H92.3c-2.4,0-4.3-1.9-4.3-4.3v-45.6c0-2.4,1.9-4.3,4.3-4.3h45.6c2.4,0,4.3,1.9,4.3,4.3v45.6
				C142.2,234.8,140.3,236.7,137.9,236.7z"/>
			<text transform="matrix(1 0 0 1 109.5879 216.4334)" class="st0 st81 st82">0</text>
			<path class="st7" d="M195.3,236.7h-45.6c-2.4,0-4.3-1.9-4.3-4.3v-45.6c0-2.4,1.9-4.3,4.3-4.3h45.6c2.4,0,4.3,1.9,4.3,4.3v45.6
				C199.6,234.8,197.7,236.7,195.3,236.7z"/>
			<text transform="matrix(1 0 0 1 167.0176 216.4334)" class="st0 st81 st82">1</text>
			<path class="st7" d="M252.3,236.7h-45.6c-2.4,0-4.3-1.9-4.3-4.3v-45.6c0-2.4,1.9-4.3,4.3-4.3h45.6c2.4,0,4.3,1.9,4.3,4.3v45.6
				C256.6,234.8,254.6,236.7,252.3,236.7z"/>
			<text transform="matrix(1 0 0 1 223.9775 216.4334)" class="st0 st81 st82">2</text>
			<path class="st7" d="M309,236.7h-45.6c-2.4,0-4.3-1.9-4.3-4.3v-45.6c0-2.4,1.9-4.3,4.3-4.3H309c2.4,0,4.3,1.9,4.3,4.3v45.6
				C313.4,234.8,311.4,236.7,309,236.7z"/>
			<text transform="matrix(1 0 0 1 280.7598 216.4334)" class="st0 st81 st82">3</text>
			<path class="st7" d="M365.9,236.7h-45.6c-2.4,0-4.3-1.9-4.3-4.3v-45.6c0-2.4,1.9-4.3,4.3-4.3h45.6c2.4,0,4.3,1.9,4.3,4.3v45.6
				C370.2,234.8,368.3,236.7,365.9,236.7z"/>
			<text transform="matrix(1 0 0 1 337.6318 216.4334)" class="st0 st81 st82">4</text>
			<path class="st7" d="M707.7,236.7h-45.6c-2.4,0-4.3-1.9-4.3-4.3v-45.6c0-2.4,1.9-4.3,4.3-4.3h45.6c2.4,0,4.3,1.9,4.3,4.3v45.6
				C712,234.8,710.1,236.7,707.7,236.7z"/>
			<text transform="matrix(1 0 0 1 673.9199 216.4334)" class="st0 st81 st82">10</text>
			<path class="st7" d="M422.8,236.7h-45.6c-2.4,0-4.3-1.9-4.3-4.3v-45.6c0-2.4,1.9-4.3,4.3-4.3h45.6c2.4,0,4.3,1.9,4.3,4.3v45.6
				C427.1,234.8,425.2,236.7,422.8,236.7z"/>
			<text transform="matrix(1 0 0 1 394.5029 216.4334)" class="st0 st81 st82">5</text>
			<path class="st7" d="M480,236.7h-45.6c-2.4,0-4.3-1.9-4.3-4.3v-45.6c0-2.4,1.9-4.3,4.3-4.3H480c2.4,0,4.3,1.9,4.3,4.3v45.6
				C484.3,234.8,482.4,236.7,480,236.7z"/>
			<text transform="matrix(1 0 0 1 451.6982 216.4334)" class="st0 st81 st82">6</text>
			<path class="st7" d="M536.8,236.7h-45.6c-2.4,0-4.3-1.9-4.3-4.3v-45.6c0-2.4,1.9-4.3,4.3-4.3h45.6c2.4,0,4.3,1.9,4.3,4.3v45.6
				C541.1,234.8,539.2,236.7,536.8,236.7z"/>
			<text transform="matrix(1 0 0 1 508.5254 216.4334)" class="st0 st81 st82">7</text>
			<path class="st7" d="M593.8,236.7h-45.6c-2.4,0-4.3-1.9-4.3-4.3v-45.6c0-2.4,1.9-4.3,4.3-4.3h45.6c2.4,0,4.3,1.9,4.3,4.3v45.6
				C598.2,234.8,596.2,236.7,593.8,236.7z"/>
			<text transform="matrix(1 0 0 1 565.5586 216.4334)" class="st0 st81 st82">8</text>
			<path class="st7" d="M650.8,236.7h-45.6c-2.4,0-4.3-1.9-4.3-4.3v-45.6c0-2.4,1.9-4.3,4.3-4.3h45.6c2.4,0,4.3,1.9,4.3,4.3v45.6
				C655.1,234.8,653.2,236.7,650.8,236.7z"/>
			<text transform="matrix(1 0 0 1 622.4883 216.4334)" class="st0 st81 st82">9</text>
		</g>
		<g>
			<g>
				<line class="st9" x1="88" y1="236.7" x2="88" y2="239.2"/>
				<line class="st83" x1="88" y1="244.3" x2="88" y2="332.4"/>
				<line class="st9" x1="88" y1="335" x2="88" y2="337.5"/>
			</g>
		</g>
		<g>
			<g>
				<line class="st9" x1="315" y1="236.7" x2="315" y2="239.2"/>
				<line class="st83" x1="315" y1="244.3" x2="315" y2="332.4"/>
				<line class="st9" x1="315" y1="335" x2="315" y2="337.5"/>
			</g>
		</g>
		<g>
			<g>
				<line class="st9" x1="485.7" y1="236.7" x2="485.7" y2="239.2"/>
				<line class="st83" x1="485.7" y1="244.3" x2="485.7" y2="332.4"/>
				<line class="st9" x1="485.7" y1="335" x2="485.7" y2="337.5"/>
			</g>
		</g>
		<g>
			<g>
				<line class="st9" x1="599.3" y1="236.7" x2="599.3" y2="239.2"/>
				<line class="st83" x1="599.3" y1="244.3" x2="599.3" y2="332.4"/>
				<line class="st9" x1="599.3" y1="335" x2="599.3" y2="337.5"/>
			</g>
		</g>
		<g>
			<g>
				<line class="st9" x1="712" y1="236.7" x2="712" y2="239.2"/>
				<line class="st83" x1="712" y1="244.3" x2="712" y2="332.4"/>
				<line class="st9" x1="712" y1="335" x2="712" y2="337.5"/>
			</g>
		</g>
		<text transform="matrix(1 0 0 1 142.9047 275.7928)"><tspan x="0" y="0" class="st19 st81 st84">Pode nos dizer o que</tspan><tspan x="25.7" y="14.4" class="st19 st81 st84">aconteceu?</tspan></text>
		<text transform="matrix(1 0 0 1 357.6469 275.7928)"><tspan x="0" y="0" class="st19 st81 st84">Como podemos</tspan><tspan x="15.3" y="14.4" class="st19 st81 st84">melhorar?</tspan></text>
		<text transform="matrix(1 0 0 1 527.9538 275.7928)"><tspan x="0" y="0" class="st19 st81 st84">Como</tspan><tspan x="-17.3" y="14.4" class="st19 st81 st84">teremos 10?</tspan></text>
		<text transform="matrix(1 0 0 1 631.4686 275.7928)"><tspan x="0" y="0" class="st19 st81 st84">Obrigado!</tspan><tspan x="1" y="14.4" class="st19 st81 st84">Pode nos</tspan><tspan x="-3.3" y="28.8" class="st19 st81 st84">dizer o que</tspan><tspan x="-9.3" y="43.2" class="st19 st81 st84">mais gostou?</tspan></text>
	</g>
</g>
<g id="Layer_24">
</g>
<g id="Layer_25">
</g>
<g id="Layer_26">
</g>
<g id="Layer_27">
</g>
<g id="Layer_28">
</g>
<g id="Layer_29">
</g>
<g id="Layer_30">
</g>
</svg>
